<svg width="16" height="16" viewBox="0 0 16 16" fill="none" xmlns="http://www.w3.org/2000/svg">
<path fill-rule="evenodd" clip-rule="evenodd" d="M16 8C16 12.4183 12.4183 16 8 16C3.58172 16 0 12.4183 0 8C0 3.58172 3.58172 0 8 0C12.4183 0 16 3.58172 16 8ZM14.4016 8.00156C14.4016 11.5362 11.5362 14.4016 8.00156 14.4016C4.46694 14.4016 1.60156 11.5362 1.60156 8.00156C1.60156 4.46694 4.46694 1.60156 8.00156 1.60156C11.5362 1.60156 14.4016 4.46694 14.4016 8.00156ZM8.00078 11.2008C9.76809 11.2008 11.2008 9.76809 11.2008 8.00078C11.2008 6.23347 9.76809 4.80078 8.00078 4.80078C6.23347 4.80078 4.80078 6.23347 4.80078 8.00078C4.80078 9.76809 6.23347 11.2008 8.00078 11.2008Z" fill="black"/>
</svg>
